Coordinates
version=1
nRows=13
nColumns=32
inDegrees=no

Units are S.I. units (second, meters, Newtons, ...)
If the header above contains a line with 'inDegrees', this indicates whether rotational values are in degrees (yes) or radians (no).

endheader
time	pelvis_tilt	pelvis_list	pelvis_rotation	pelvis_tx	pelvis_ty	pelvis_tz	hip_flexion_r	hip_adduction_r	hip_rotation_r	knee_angle_r	ankle_angle_r	subtalar_angle_r	mtp_angle_r	hip_flexion_l	hip_adduction_l	hip_rotation_l	knee_angle_l	ankle_angle_l	subtalar_angle_l	mtp_angle_l	lumbar_extension	lumbar_bending	lumbar_rotation	arm_flex_r	arm_add_r	arm_rot_r	elbow_flex_r	arm_flex_l	arm_add_l	arm_rot_l	elbow_flex_l
0.6	-0.131095	0.0203561	0.0283498	0.888159	1.00507	-0.308705	-0.256461	-0.0797801	-0.0914317	1.03419	-0.508675	-0.493177	0.0754276	0.858541	-0.0397394	-0.460922	0.342434	-0.373881	0.0951035	0.0841122	-0.182596	-0.0589493	0.298587	-0.355891	-0.413441	0.183338	2.40925	-1.10532	-0.287711	-0.201596	2.06245
0.605	-0.12578	0.012862	0.0288408	0.888308	1.00487	-0.308324	-0.235979	-0.07259	-0.0794342	1.1185	-0.506693	-0.520475	0.0755441	0.832829	-0.0467263	-0.503322	0.310253	-0.387611	0.14084	0.0841522	-0.190282	-0.0520082	0.28738	-0.373361	-0.408378	0.187846	2.3818	-1.08346	-0.270522	-0.197579	2.05353
0.61	-0.121441	0.00676556	0.0311034	0.888312	1.00448	-0.308093	-0.212517	-0.0666735	-0.0716479	1.2038	-0.500354	-0.540902	0.0756605	0.810285	-0.0521814	-0.543787	0.288861	-0.403604	0.177044	0.0841922	-0.197278	-0.0464203	0.273669	-0.390647	-0.402083	0.191645	2.35094	-1.05925	-0.255578	-0.191848	2.04361
0.615	-0.117963	0.00211947	0.0348555	0.888192	1.0039	-0.307982	-0.186356	-0.0622618	-0.0675121	1.28948	-0.489699	-0.555518	0.0757769	0.79016	-0.0562473	-0.580219	0.276664	-0.42187	0.203557	0.0842321	-0.203627	-0.0423168	0.257675	-0.407485	-0.394683	0.194779	2.31671	-1.03304	-0.242871	-0.184528	2.03289
0.62	-0.115054	-0.0010332	0.0397485	0.887983	1.00317	-0.307962	-0.157991	-0.0595561	-0.0663093	1.37493	-0.475266	-0.565611	0.0758933	0.771452	-0.0590636	-0.610767	0.272007	-0.441419	0.2212	0.0842721	-0.209575	-0.0398045	0.239651	-0.423655	-0.386348	0.197326	2.27921	-1.00516	-0.232322	-0.175745	2.0215
0.625	-0.112281	-0.00260021	0.0453834	0.887733	1.00232	-0.308005	-0.128065	-0.0587853	-0.0672081	1.45956	-0.457885	-0.572491	0.0760096	0.753033	-0.0607053	-0.634021	0.273386	-0.460317	0.231495	0.0843121	-0.215542	-0.0390243	0.219874	-0.439	-0.377276	0.199384	2.23862	-0.975873	-0.223816	-0.16563	2.0095
0.63	-0.109133	-0.00241167	0.0513344	0.887496	1.00139	-0.308091	-0.0972723	-0.0602387	-0.0693134	1.54285	-0.438446	-0.577289	0.076126	0.733802	-0.0611523	-0.649136	0.279637	-0.475856	0.236272	0.0843521	-0.222053	-0.0401824	0.198626	-0.453419	-0.367682	0.201054	2.19521	-0.945365	-0.217231	-0.154321	1.99695
0.635	-0.105111	-0.000236747	0.0571836	0.887319	1.00042	-0.308206	-0.066239	-0.0642475	-0.0717192	1.62439	-0.41772	-0.580812	0.0762423	0.712846	-0.060297	-0.655894	0.290054	-0.484763	0.237316	0.0843921	-0.229655	-0.043536	0.17617	-0.466868	-0.357777	0.202429	2.14935	-0.913781	-0.212462	-0.141971	1.98388
0.64	-0.0998199	0.00415508	0.0625662	0.88724	0.999432	-0.308339	-0.0353989	-0.0711127	-0.0735607	1.70388	-0.396252	-0.583481	0.0763587	0.689585	-0.0579826	-0.654664	0.304414	-0.48347	0.236089	0.0844321	-0.238805	-0.0493325	0.152714	-0.479354	-0.347763	0.20359	2.10152	-0.881219	-0.209428	-0.12875	1.97041
0.645	-0.0930491	0.0109038	0.0672131	0.887273	0.998412	-0.308488	-0.00488728	-0.080998	-0.0740615	1.7811	-0.374358	-0.585359	0.076475	0.663857	-0.0540606	-0.646285	0.322876	-0.4685	0.233557	0.0844721	-0.249785	-0.0577156	0.128391	-0.490934	-0.337825	0.204586	2.05227	-0.847759	-0.208073	-0.114846	1.9567
0.65	-0.0848211	0.0199681	0.0709841	0.88741	0.997328	-0.308649	0.0255204	-0.0938179	-0.0725688	1.85589	-0.352175	-0.586228	0.0765912	0.63594	-0.0484585	-0.631925	0.345797	-0.437058	0.230094	0.084512	-0.262636	-0.0686274	0.103251	-0.501708	-0.32814	0.205447	2.00227	-0.813482	-0.208352	-0.100476	1.94306
0.655	-0.0754013	0.0310732	0.0738793	0.887604	0.996131	-0.308824	0.056406	-0.109161	-0.0685682	1.9281	-0.329733	-0.585679	0.0767075	0.606508	-0.0412299	-0.612919	0.373497	-0.387757	0.22542	0.084552	-0.277142	-0.0817485	0.077255	-0.511796	-0.318893	0.206186	1.95223	-0.778501	-0.210198	-0.0858933	1.92987
0.66	-0.0652631	0.0437255	0.0760352	0.887789	0.994772	-0.309006	0.0886394	-0.12631	-0.0616991	1.99752	-0.307004	-0.583163	0.0768238	0.576514	-0.0325536	-0.590589	0.406026	-0.321302	0.21859	0.0845919	-0.292863	-0.0965117	0.0502822	-0.521322	-0.310285	0.206829	1.90291	-0.742985	-0.213506	-0.0714011	1.91764
